<svg preserveAspectRatio="none" overflow="visible" style="display: block;" width="14" height="14" viewBox="0 0 14 14" fill="none" xmlns="http://www.w3.org/2000/svg">
<g id="icon-wrapper" clip-path="url(#clip0_0_14)">
<path id="Vector" d="M1.75 2.20674e-06H8.75C9.02698 -0.000356933 9.30132 0.0431238 9.55721 0.12794C9.8131 0.212757 10.0455 0.337234 10.241 0.494202L13.3805 3.0058C13.5772 3.16226 13.7333 3.34834 13.8396 3.55331C13.9459 3.75829 14.0004 3.97808 14 4.2V12.6C14 12.9713 13.8156 13.3274 13.4874 13.5899C13.1592 13.8525 12.7141 14 12.25 14H1.75C1.28587 14 0.840752 13.8525 0.512563 13.5899C0.184374 13.3274 0 12.9713 0 12.6V1.4C0 1.0287 0.184374 0.672603 0.512563 0.410053C0.840752 0.147502 1.28587 2.20674e-06 1.75 2.20674e-06Z" fill="#3B82F6"/>
</g>
<defs>
<clipPath id="clip0_0_14">
<rect width="14" height="14" fill="white"/>
</clipPath>
</defs>
</svg>
