<svg preserveAspectRatio="none" overflow="visible" style="display: block;" width="18" height="18" viewBox="0 0 18 18" fill="none" xmlns="http://www.w3.org/2000/svg">
<g id="pause">
<g id="Vector">
<path d="M13.5005 2.25H11.2503C10.836 2.25 10.5002 2.58579 10.5002 3V15C10.5002 15.4142 10.836 15.75 11.2503 15.75H13.5005C13.9148 15.75 14.2506 15.4142 14.2506 15V3C14.2506 2.58579 13.9148 2.25 13.5005 2.25Z" stroke="#74C9A5" stroke-width="2" stroke-linecap="round"/>
<path d="M6.74974 2.25H4.49949C4.08522 2.25 3.7494 2.58579 3.7494 3V15C3.7494 15.4142 4.08522 15.75 4.49949 15.75H6.74974C7.164 15.75 7.49983 15.4142 7.49983 15V3C7.49983 2.58579 7.164 2.25 6.74974 2.25Z" stroke="#74C9A5" stroke-width="2" stroke-linecap="round"/>
</g>
</g>
</svg>
