<svg preserveAspectRatio="none" overflow="visible" style="display: block;" width="15" height="15" viewBox="0 0 15 15" fill="none" xmlns="http://www.w3.org/2000/svg">
<g id="moon-star" clip-path="url(#clip0_0_4)">
<path id="Vector" d="M11.2503 3.12508H13.7505M12.5004 1.875V4.37516M13.1161 7.80437C13.0575 8.88953 12.6858 9.93449 12.046 10.8129C11.4062 11.6914 10.5257 12.3657 9.51084 12.7544C8.49598 13.1431 7.39026 13.2295 6.32735 13.0032C5.26443 12.7768 4.28983 12.2475 3.52134 11.4791C2.75286 10.7107 2.2234 9.73613 1.99697 8.67324C1.77053 7.61036 1.85682 6.50463 2.2454 5.48974C2.63397 4.47484 3.3082 3.59423 4.18658 2.95434C5.06497 2.31445 6.10989 1.94269 7.19505 1.884C7.44819 1.87025 7.5807 2.17152 7.44631 2.38591C6.99684 3.10505 6.80438 3.9553 6.90034 4.7979C6.9963 5.64051 7.37501 6.42571 7.97468 7.02537C8.57434 7.62503 9.35955 8.00375 10.2022 8.09971C11.0448 8.19567 11.895 8.0032 12.6142 7.55373C12.8292 7.41935 13.1298 7.55123 13.1161 7.80437Z" stroke="#FFD17A" stroke-width="2" stroke-linecap="round"/>
</g>
<defs>
<clipPath id="clip0_0_4">
<rect width="15" height="15" fill="white"/>
</clipPath>
</defs>
</svg>
